<svg width="60" height="60" viewBox="0 0 60 60" fill="none" xmlns="http://www.w3.org/2000/svg">
<g id="Frame 23">
<path id="Instagram" d="M30.0126 21.019C32.9493 21.019 33.3163 21.019 34.5094 21.1107C37.5378 21.2025 38.9144 22.6709 39.0062 25.6075C39.0979 26.8006 39.0979 27.0759 39.0979 30.0126C39.0979 32.9493 39.0979 33.3163 39.0062 34.4176C38.9144 37.3543 37.4461 38.8226 34.5094 38.9144C33.3163 39.0062 33.041 39.0062 30.0126 39.0062C27.0759 39.0062 26.7088 39.0062 25.6075 38.9144C22.5791 38.8226 21.2025 37.3543 21.1107 34.4176C21.019 33.2246 21.019 32.9493 21.019 30.0126C21.019 27.0759 21.019 26.7088 21.1107 25.6075C21.2025 22.6709 22.6709 21.2025 25.6075 21.1107C26.7088 21.019 27.0759 21.019 30.0126 21.019ZM30.0126 19C26.9841 19 26.617 19 25.5158 19.0918C21.4778 19.2753 19.2753 21.4778 19.0918 25.5158C19 26.617 19 26.9841 19 30.0126C19 33.041 19 33.4081 19.0918 34.5094C19.2753 38.5473 21.4778 40.7498 25.5158 40.9334C26.617 41.0251 26.9841 41.0251 30.0126 41.0251C33.041 41.0251 33.4081 41.0251 34.5094 40.9334C38.5473 40.7498 40.7498 38.5473 40.9334 34.5094C41.0251 33.4081 41.0251 33.041 41.0251 30.0126C41.0251 26.9841 41.0251 26.617 40.9334 25.5158C40.7498 21.4778 38.5473 19.2753 34.5094 19.0918C33.4081 19 33.041 19 30.0126 19ZM30.0126 24.3227C26.8923 24.3227 24.3227 26.8923 24.3227 30.0126C24.3227 33.1328 26.8923 35.7024 30.0126 35.7024C33.1328 35.7024 35.7024 33.1328 35.7024 30.0126C35.7024 26.8923 33.1328 24.3227 30.0126 24.3227ZM30.0126 33.6834C27.9936 33.6834 26.3417 32.0315 26.3417 30.0126C26.3417 27.9936 27.9936 26.3417 30.0126 26.3417C32.0315 26.3417 33.6834 27.9936 33.6834 30.0126C33.6834 32.0315 32.0315 33.6834 30.0126 33.6834ZM35.8859 22.8544C35.1518 22.8544 34.6011 23.405 34.6011 24.1392C34.6011 24.8734 35.1518 25.424 35.8859 25.424C36.6201 25.424 37.1707 24.8734 37.1707 24.1392C37.1707 23.405 36.6201 22.8544 35.8859 22.8544Z" fill="#A4A7AC"/>
<circle id="Ellipse 35" cx="30" cy="30" r="29.5" stroke="#444A55"/>
</g>
</svg>
