<svg width="60" height="60" viewBox="0 0 60 60" fill="none" xmlns="http://www.w3.org/2000/svg">
<g clip-path="url(#clip0_33_408)">
<path d="M29.6826 17.0317C29.5982 17.0422 29.2977 17.0791 29.0234 17.1108C24.5938 17.6065 20.5279 20.4119 18.5293 24.3565C16.6256 28.1006 16.652 32.6463 18.5926 36.4696L18.9037 37.0865L17.9545 40.5301C17.4324 42.4233 17.0106 43.9789 17.0158 43.9842C17.0264 43.9895 18.6242 43.5781 20.5754 43.0666L24.1191 42.1438L24.6096 42.3811C26.0123 43.0614 27.4783 43.499 28.9971 43.6889C29.767 43.7838 31.3965 43.768 32.1875 43.6625C37.1287 42.9981 41.2947 39.7971 43.0719 35.2989C43.7152 33.6641 43.9736 32.2508 43.9736 30.3682C43.9684 29.1131 43.9104 28.5278 43.6783 27.4678C43.1984 25.274 42.033 23.0223 40.5512 21.4455C40.3402 21.2188 40.1451 20.9973 40.1188 20.9446C40.0502 20.818 39.3014 20.1588 38.7529 19.7422C37.7352 18.967 36.401 18.234 35.2197 17.8016C34.5289 17.5485 33.3266 17.2479 32.5566 17.1319C32.0346 17.0528 30.0254 16.9842 29.6826 17.0317ZM32.4248 19.3678C34.7926 19.7791 36.7965 20.818 38.4945 22.5108C40.1346 24.1455 41.1629 26.1283 41.6006 28.5225C41.7377 29.2449 41.7641 30.943 41.6586 31.7604C41.2947 34.5131 39.9922 36.9336 37.9197 38.7055C35.9053 40.4246 33.5164 41.3633 30.9166 41.453C28.802 41.5268 26.9141 41.0574 25.0104 39.9922L24.4514 39.6811L22.3578 40.2242C21.1766 40.5301 20.2695 40.741 20.2695 40.7094C20.2695 40.6778 20.5174 39.7549 20.8232 38.658L21.3717 36.6647L21.1449 36.3114C18.8563 32.7676 18.8088 28.2799 21.0184 24.599C21.9043 23.133 23.2807 21.7356 24.7256 20.8496C25.2213 20.5438 26.3709 20.0006 26.8824 19.8266C27.6734 19.5576 28.6965 19.3362 29.5772 19.2465C30.1256 19.1885 31.8131 19.2623 32.4248 19.3678Z" fill="#A4A7AC"/>
<path d="M25.3057 24.2721C24.8732 24.4672 24.2404 25.3163 23.9451 26.0862C23.7869 26.5028 23.7764 26.5502 23.7764 27.336C23.7764 28.127 23.7816 28.1692 23.9504 28.6543C24.2721 29.5772 24.7783 30.4262 25.6695 31.5231C27.9635 34.3602 29.4559 35.4413 32.5039 36.4643C33.9488 36.9495 35.1354 36.8229 36.248 36.0635C36.9494 35.5889 37.2236 35.1196 37.3502 34.1756C37.424 33.6536 37.3818 33.469 37.1498 33.3161C37.0443 33.2475 36.8756 33.1737 36.7754 33.1526C36.6752 33.1368 36.1742 32.9206 35.668 32.6727C34.5131 32.119 34.2916 32.0293 34.0332 32.0293C33.8328 32.0293 33.8117 32.0504 33.3318 32.6463C32.4986 33.6905 32.4459 33.7432 32.2033 33.7379C31.9238 33.7274 30.7953 33.1842 30.1361 32.7413C29.0234 31.9977 27.9635 30.8639 27.3359 29.7459C27.125 29.3663 27.1408 29.2872 27.5469 28.8178C27.9266 28.3801 28.2641 27.8581 28.3115 27.6524C28.359 27.4362 27.1777 24.5885 26.9352 24.3407L26.7664 24.1719H26.1441C25.6484 24.1719 25.4691 24.193 25.3057 24.2721Z" fill="#A4A7AC"/>
</g>
<circle cx="30" cy="30" r="29.5" stroke="#444A55"/>
<defs>
<clipPath id="clip0_33_408">
<rect width="27" height="27" fill="white" transform="translate(17 17)"/>
</clipPath>
</defs>
</svg>

