<svg width="60" height="60" viewBox="0 0 60 60" fill="none" xmlns="http://www.w3.org/2000/svg">
<g id="Frame 22">
<path id="Twitter" d="M26.2217 39.6626C34.8874 39.6626 39.6264 32.4833 39.6264 26.2579C39.6264 26.054 39.6222 25.851 39.6128 25.6489C40.5327 24.9839 41.3324 24.1539 41.9631 23.2095C41.119 23.5846 40.2106 23.8371 39.2576 23.951C40.2302 23.3678 40.9772 22.4448 41.3295 21.3447C40.4191 21.8846 39.4109 22.2769 38.338 22.4884C37.478 21.5728 36.2536 21 34.8989 21C32.2968 21 30.1868 23.11 30.1868 25.7108C30.1868 26.0806 30.2283 26.44 30.3088 26.785C26.3935 26.5883 22.9215 24.7134 20.5981 21.8629C20.193 22.5589 19.9598 23.3681 19.9598 24.2307C19.9598 25.8651 20.7916 27.3081 22.0565 28.1525C21.2837 28.1287 20.5576 27.9161 19.9227 27.563C19.9217 27.5826 19.9217 27.6025 19.9217 27.6231C19.9217 29.905 21.5459 31.8099 23.7014 32.2417C23.3057 32.3495 22.8894 32.4075 22.4595 32.4075C22.156 32.4075 21.8609 32.3772 21.5739 32.3226C22.1735 34.1942 23.9129 35.5565 25.9751 35.5949C24.3624 36.8587 22.331 37.6116 20.1238 37.6116C19.7438 37.6116 19.3688 37.59 19 37.5464C21.0849 38.8825 23.5606 39.6626 26.2217 39.6626Z" fill="#A4A7AC"/>
<circle id="Ellipse 35" cx="30" cy="30" r="29.5" stroke="#444A55"/>
</g>
</svg>
